<svg width="139" height="20" viewBox="0 0 139 20" fill="none" xmlns="http://www.w3.org/2000/svg">
<path d="M37.754 16.0851C40.606 16.0851 42.906 14.4387 43.706 11.8057H39.809C39.433 12.4807 38.669 12.8877 37.754 12.8877C36.517 12.8877 35.689 12.2036 35.434 10.88H43.874C43.925 10.5227 43.955 10.1756 43.955 9.82745C43.955 6.44235 41.418 3.78806 37.754 3.78806C34.186 3.78806 31.579 6.39058 31.579 9.92793C31.579 13.4531 34.207 16.0851 37.754 16.0851ZM40.098 8.67844H35.502C35.819 7.53248 36.612 6.90317 37.754 6.90317C38.935 6.90317 39.754 7.52537 40.098 8.67945V8.67844ZM51.044 16.084C52.364 16.084 53.544 15.6435 54.474 14.8782L54.81 15.6943H57.837V4.15449H54.918L54.518 5.04771C53.578 4.26106 52.383 3.80735 51.044 3.80735C47.568 3.80735 45.083 6.34998 45.083 9.92387C45.083 13.5099 47.568 16.0851 51.044 16.0851V16.084ZM51.568 12.565C50.101 12.565 49.023 11.4403 49.023 9.93301C49.023 8.43585 50.092 7.31121 51.568 7.31121C53.034 7.31121 54.112 8.43585 54.112 9.93301C54.112 11.4403 53.034 12.565 51.568 12.565ZM64.691 16.084C67.711 16.084 69.716 14.5067 69.716 12.095C69.716 9.1687 67.329 8.79009 65.533 8.4663C64.453 8.2704 63.583 8.11713 63.583 7.46143C63.583 6.92651 64.005 6.61084 64.633 6.61084C65.343 6.61084 65.83 6.9529 65.83 7.68981H69.497C69.453 5.35221 67.577 3.78908 64.681 3.78908C61.769 3.78908 59.827 5.28116 59.827 7.59541C59.827 10.3938 62.164 10.9338 63.927 11.2231C65.019 11.4068 65.879 11.5966 65.879 12.2625C65.879 12.8583 65.336 13.1557 64.763 13.1557C64.021 13.1557 63.443 12.7669 63.443 11.9235H59.673C59.709 14.4235 61.592 16.0851 64.691 16.0851V16.084ZM72.791 20C75.727 20 77.135 18.7241 78.668 15.1929L83.432 4.16667H79.226L76.977 10.5238L74.565 4.16667H70.31L75.008 14.7533C74.478 16.1886 74.025 16.5844 72.528 16.5844H71.45V20H72.791ZM91.295 16.084C94.795 16.084 97.268 13.5313 97.268 9.94519C97.268 6.35912 94.796 3.80633 91.295 3.80633C90.2986 3.79845 89.3199 4.07413 88.47 4.60211V0H84.6V15.7065H87.497L87.867 14.8498C88.79 15.6324 89.969 16.084 91.295 16.084ZM90.772 12.565C89.305 12.565 88.227 11.4403 88.227 9.9462C88.227 8.43788 89.305 7.31324 90.772 7.31324C92.238 7.31324 93.316 8.43788 93.316 9.94519C93.316 11.4403 92.229 12.5639 90.772 12.5639V12.565ZM104.37 16.084C105.69 16.084 106.87 15.6435 107.8 14.8782L108.136 15.6943H111.163V4.15449H108.245L107.844 5.04771C106.905 4.26106 105.709 3.80735 104.37 3.80735C100.894 3.80735 98.41 6.34998 98.41 9.92387C98.41 13.5099 100.894 16.0851 104.37 16.0851V16.084ZM104.894 12.565C103.427 12.565 102.349 11.4403 102.349 9.93301C102.349 8.43585 103.419 7.31121 104.894 7.31121C106.361 7.31121 107.439 8.43585 107.439 9.93301C107.439 11.4403 106.361 12.565 104.894 12.565ZM117.547 15.7065V9.54425C117.547 8.07552 118.249 7.2097 119.47 7.2097C120.456 7.2097 120.953 7.87657 120.953 9.21945V15.7054H124.868V8.67134C124.868 5.73082 123.135 3.82663 120.495 3.82663C119.025 3.82663 117.762 4.40012 116.915 5.35729L116.378 4.16768H113.631V15.7075H117.547V15.7065ZM131.295 15.7065V10.8262L134.143 15.7065H138.759L134.857 9.66707L138.4 4.16667H134.003L131.295 8.68758V0H127.379V15.7065H131.295Z" fill="white"/>
<path fill-rule="evenodd" clip-rule="evenodd" d="M10.802 0L0 20H5.986L16.789 0H10.802Z" fill="url(#paint0_linear_16_9)"/>
<path opacity="0.5" fill-rule="evenodd" clip-rule="evenodd" d="M18.171 0L7.36801 20H13.354L24.157 0H18.171Z" fill="url(#paint1_linear_16_9)"/>
<path opacity="0.15" fill-rule="evenodd" clip-rule="evenodd" d="M25.539 0L14.737 20H20.723L31.525 0H25.539Z" fill="url(#paint2_linear_16_9)"/>
<defs>
<linearGradient id="paint0_linear_16_9" x1="12.1208" y1="-7.24695e-07" x2="0.237104" y2="18.2399" gradientUnits="userSpaceOnUse">
<stop stop-color="#33D35E"/>
<stop offset="1" stop-color="#2AB6D9"/>
</linearGradient>
<linearGradient id="paint1_linear_16_9" x1="19.4888" y1="-7.24695e-07" x2="7.60512" y2="18.2399" gradientUnits="userSpaceOnUse">
<stop stop-color="#33D35E"/>
<stop offset="1" stop-color="#2AB6D9"/>
</linearGradient>
<linearGradient id="paint2_linear_16_9" x1="26.8571" y1="-7.24695e-07" x2="14.9731" y2="18.2393" gradientUnits="userSpaceOnUse">
<stop stop-color="#33D35E"/>
<stop offset="1" stop-color="#2AB6D9"/>
</linearGradient>
</defs>
</svg>
